<?xml version="1.0" encoding="utf-8"?>
<!-- Generator: Adobe Illustrator 16.0.0, SVG Export Plug-In . SVG Version: 6.00 Build 0)  -->
<!DOCTYPE svg PUBLIC "-//W3C//DTD SVG 1.1//EN" "http://www.w3.org/Graphics/SVG/1.1/DTD/svg11.dtd">
<svg version="1.1"
	 id="svg2" xmlns:dc="http://purl.org/dc/elements/1.1/" xmlns:cc="http://creativecommons.org/ns#" xmlns:rdf="http://www.w3.org/1999/02/22-rdf-syntax-ns#" xmlns:svg="http://www.w3.org/2000/svg" xmlns:sodipodi="http://sodipodi.sourceforge.net/DTD/sodipodi-0.dtd" xmlns:inkscape="http://www.inkscape.org/namespaces/inkscape" sodipodi:docname="Neues Dokument 1" inkscape:version="0.47 r22583"
	 xmlns="http://www.w3.org/2000/svg" xmlns:xlink="http://www.w3.org/1999/xlink" x="0px" y="0px" width="607px" height="495px"
	 viewBox="-159.681 -124.564 607 495" enable-background="new -159.681 -124.564 607 495" xml:space="preserve">
<defs>
	
	
		<inkscape:perspective  id="perspective10" inkscape:vp_z="744.09448 : 526.18109 : 1" inkscape:vp_y="0 : 1000 : 0" inkscape:vp_x="0 : 526.18109 : 1" sodipodi:type="inkscape:persp3d" inkscape:persp3d-origin="372.04724 : 350.78739 : 1">
		</inkscape:perspective>
	
		<inkscape:perspective  id="perspective2824" inkscape:vp_z="1 : 0.5 : 1" inkscape:vp_y="0 : 1000 : 0" inkscape:vp_x="0 : 0.5 : 1" sodipodi:type="inkscape:persp3d" inkscape:persp3d-origin="0.5 : 0.33333333 : 1">
		</inkscape:perspective>
</defs>
<sodipodi:namedview  showgrid="false" inkscape:cy="301.61852" inkscape:cx="-33.776466" inkscape:zoom="0.35" borderopacity="1.0" bordercolor="#666666" pagecolor="#ffffff" id="base" inkscape:window-maximized="1" inkscape:window-y="25" inkscape:window-x="0" inkscape:window-height="819" inkscape:window-width="1440" inkscape:current-layer="layer1" inkscape:document-units="px" inkscape:pageshadow="2" inkscape:pageopacity="0.0">
	</sodipodi:namedview>
<g id="layer1" transform="translate(-102.56866,-586.96105)" inkscape:label="Ebene 1" inkscape:groupmode="layer">
	<path id="path2830" d="M505.741,709.01c-3.038,64.029-12.193,107.281-25.342,119.746c-3.771,3.573-4.792,3.958-8.78,3.312
		c-7.875-1.278-11.699-5.676-18.298-21.038c-3.51-8.169-41.047-33.484-70.962-47.857c-54.346-26.113-100.853-35.353-172.52-34.273
		l-25.804,0.388l-2.227,4.772c-1.751,3.753-3.289,5.138-7.21,6.493c-2.997,1.036-5.49,2.833-6.252,4.507
		c-0.698,1.53-2.212,3.132-3.366,3.557c-1.154,0.425-3.87,2.104-6.035,3.732c-3.353,2.521-3.884,3.592-3.579,7.213
		c0.334,3.953,1.219,4.821,12.585,12.335c8.25,5.454,12.226,8.808,12.226,10.31c0,2.313-2.471,5.971-9.177,13.584
		c-2.168,2.463-3.943,5.421-3.943,6.576c0,1.154,1.9,4.921,4.221,8.368c6.821,10.129,17.168,30.469,22.155,43.556
		c4.675,12.265,7.158,15.51,12.986,16.974c4.065,1.021,7.157,4.015,7.157,6.929c0,7.428-21.365,30.86-35.797,39.26
		c-9.574,5.572-15.332,5.975-18.985,1.33c-1.36-1.729-2.472-4.062-2.472-5.188c0-1.124-1.652-4.406-3.671-7.294
		c-4.958-7.088-25.156-37.957-27.153-41.495c-7.74-13.716-16.704-33.816-23.726-53.198c-1.661-4.582-3.798-9.52-4.749-10.971
		c-2.726-4.16-11.124-6.804-18.763-5.906c-6.013,0.707-8.058,0.025-8.466-2.82c-0.047-0.328-0.45-2.206-0.895-4.175
		c-0.678-2.997-4.423-39.875-4.423-43.555c0-1.732-12.602-1.449-14.062,0.316c-0.678,0.82-1.415,3.102-1.637,5.069l-0.404,3.579
		l-15.34,0.334c-15.731,0.344-18.635-0.333-18.673-4.356c-0.041-4.298-2.109-5.385-11.517-6.052
		c-8.88-0.629-9.396-0.826-11.005-4.193c-2.926-6.123-4.774-36.38-4.812-78.771c-0.037-41.735,0.864-54.503,4.306-61.009
		l1.985-3.754l22.757-0.708c12.516-0.391,53.363-1.044,90.772-1.452l68.016-0.744l3.851,3.597c2.118,1.979,3.851,4.686,3.851,6.017
		c0,2.369,0.5,2.409,22.961,1.86c67.317-1.645,96.866-6.167,136.831-20.95c31.523-11.659,58.608-26.188,89.064-47.778
		c16.378-11.607,17.583-12.884,23.614-24.999c5.271-10.59,8.529-13.773,15.2-14.856c3.861-0.625,4.899-0.17,9.69,4.245
		c5.812,5.357,8.456,10.872,13.21,27.546C503.534,563.596,508.941,641.606,505.741,709.01L505.741,709.01z"/>
</g>
</svg>
